# xmcd CD database file
#
# Track frame offsets:
#	150
#	16447
#	37860
#	55325
#	80525
#	100950
#	116845
#	146720
#	164225
#
# Disc length: 2500 seconds
#
# Revision: 0
# Processed by: cddbd v1.4PL0 Copyright (c) Steve Scherf et al.
# Submitted via: CDex 1.50
#
DISCID=7c09c209
DTITLE=Jerry Fisher and The Music Company - In An' Outta Da Blues
DYEAR=1900
DGENRE=Blues
TTITLE0=It Ain't Over Yet
TTITLE1=Oh Mary
TTITLE2=You Made Me
TTITLE3=Cry Like a Rainy Day
TTITLE4=The Weight of the World
TTITLE5=I Feel the Burden
TTITLE6=I Love You More Than You'll Ever Know
TTITLE7=I've Got to Stop Thinkin' 'bout That
TTITLE8=After the Mardi Gras
EXTD=
EXTT0=
EXTT1=
EXTT2=
EXTT3=
EXTT4=
EXTT5=
EXTT6=
EXTT7=
EXTT8=
PLAYORDER=
